Coordinates
version=1
nRows=13
nColumns=40
inDegrees=yes

Units are S.I. units (second, meters, Newtons, ...)
If the header above contains a line with 'inDegrees', this indicates whether rotational values are in degrees (yes) or radians (no).

endheader
time	pelvis_tilt	pelvis_list	pelvis_rotation	pelvis_tx	pelvis_ty	pelvis_tz	hip_flexion_r	hip_adduction_r	hip_rotation_r	knee_angle_r	knee_angle_r_beta	ankle_angle_r	subtalar_angle_r	mtp_angle_r	hip_flexion_l	hip_adduction_l	hip_rotation_l	knee_angle_l	knee_angle_l_beta	ankle_angle_l	subtalar_angle_l	mtp_angle_l	lumbar_extension	lumbar_bending	lumbar_rotation	arm_flex_r	arm_add_r	arm_rot_r	elbow_flex_r	pro_sup_r	wrist_flex_r	wrist_dev_r	arm_flex_l	arm_add_l	arm_rot_l	elbow_flex_l	pro_sup_l	wrist_flex_l	wrist_dev_l
      0.00000000	      1.98801448	     -1.13388122	      1.68533469	      0.06343760	      1.31258313	     -0.00320797	     68.19672687	      4.38086400	      2.15989031	    102.67630570	      1.79203960	      1.83044494	    -15.83879103	      0.00000000	     28.64446676	     -6.71924772	     -7.54288846	     60.10165929	      1.04897184	     -6.65529849	    -13.51643013	      0.00000000	    -56.50718712	     -2.32893564	      0.20966514	     58.23618840	     15.07898723	    -55.41768486	     30.81392465	     77.41146817	      0.00000000	      0.00000000	     58.84856952	     17.85607820	    -46.84027004	     34.79478748	      3.24034421	      0.00000000	      0.00000000
      0.01700000	      2.27080537	     -0.55173000	      1.78810060	      0.06296385	      1.31311776	     -0.00317099	     66.72457068	      3.74520646	      2.56936555	     99.94754478	      1.74441374	      1.99726887	    -15.93825977	      0.00000000	     28.97258740	     -6.40689415	     -8.19447032	     62.84382329	      1.09683163	     -6.41854656	    -13.27370479	      0.00000000	    -56.71273024	     -2.59192064	     -0.31756515	     58.06516063	     15.08546215	    -55.36904637	     30.88943589	     77.44786810	      0.00000000	      0.00000000	     58.71900238	     17.81093081	    -46.76891222	     34.76902567	      3.27661247	      0.00000000	      0.00000000
      0.03300000	      3.28382888	     -0.34123267	      2.07731311	      0.06298128	      1.31478022	     -0.00344775	     64.30842581	      3.10150371	      2.50655713	     97.11051563	      1.69489824	      2.52777523	    -15.73540720	      0.00000000	     28.43429057	     -6.39741597	     -8.47342637	     65.55320396	      1.14411924	     -5.40081655	    -12.72510828	      0.00000000	    -57.64242474	     -2.41113491	     -0.66818427	     57.90695465	     15.09457736	    -55.11481577	     30.99276159	     77.63268323	      0.00000000	      0.00000000	     58.52718180	     17.69767124	    -46.51835983	     34.84099084	      3.35534005	      0.00000000	      0.00000000
      0.05000000	      3.76761456	      0.11257014	      2.18989840	      0.06277325	      1.31555162	     -0.00342901	     62.43747455	      2.51334059	      2.74206574	     94.20468434	      1.64418191	      2.60869224	    -15.73366219	      0.00000000	     28.66570864	     -6.28372788	     -8.99105215	     68.41219978	      1.19401813	     -5.09791080	    -12.31795464	      0.00000000	    -58.06794232	     -2.56353317	     -1.10996462	     57.76542391	     15.13402342	    -55.01771183	     31.02856377	     77.71802926	      0.00000000	      0.00000000	     58.46908041	     17.60563996	    -46.41835112	     34.80118341	      3.35966386	      0.00000000	      0.00000000
      0.06700000	      3.86917413	      0.73033730	      2.22993247	      0.06253925	      1.31607015	     -0.00348012	     60.74060988	      1.92846432	      3.15691043	     90.98132592	      1.58792370	      2.60071539	    -15.82378289	      0.00000000	     29.47572952	     -6.02715963	     -9.55681937	     71.33137811	      1.24496741	     -4.88458104	    -12.11486579	      0.00000000	    -58.19142353	     -2.91407301	     -1.56839385	     57.66543101	     15.04828385	    -55.01013389	     31.11621383	     77.70856294	      0.00000000	      0.00000000	     58.41626877	     17.66297268	    -46.32231209	     34.77719781	      3.43142404	      0.00000000	      0.00000000
      0.08300000	      4.60462602	      0.90527891	      2.71627614	      0.06272221	      1.31734943	     -0.00405647	     58.14403504	      1.23103447	      2.92688958	     87.56890830	      1.52836577	      2.34562722	    -15.70055280	      0.00000000	     29.84755830	     -6.01735757	     -9.40104442	     74.58306757	      1.30172010	     -3.71633440	    -11.89140426	      0.00000000	    -58.94903292	     -2.56223079	     -1.97684752	     57.64045973	     15.07451638	    -54.81840852	     31.15726994	     77.40628006	      0.00000000	      0.00000000	     58.45078860	     17.51471826	    -46.16723480	     34.62546596	      3.93366664	      0.00000000	      0.00000000
      0.10000000	      4.81069674	      1.39159853	      2.94215960	      0.06268848	      1.31795791	     -0.00426965	     55.96836676	      0.64089107	      3.15613820	     84.07054695	      1.46730785	      2.13938477	    -15.69526996	      0.00000000	     30.86518141	     -5.84498423	     -9.57857584	     77.69909628	      1.35610506	     -3.31739309	    -11.59144613	      0.00000000	    -59.21033308	     -2.67708369	     -2.49856685	     57.60637059	     15.09308474	    -54.74641655	     31.25050504	     77.13883651	      0.00000000	      0.00000000	     58.42837477	     17.44677593	    -46.05622297	     34.57425393	      4.24126553	      0.00000000	      0.00000000
      0.11700000	      5.06507741	      1.77069572	      3.34554578	      0.06270612	      1.31864165	     -0.00464748	     53.50587329	     -0.03916150	      3.12783380	     80.39259464	      1.40311547	      1.70495740	    -15.71523717	      0.00000000	     31.91996766	     -5.71763815	     -9.60091829	     80.81041755	      1.41040786	     -2.62487177	    -11.46858543	      0.00000000	    -59.53462845	     -2.62242080	     -2.93726970	     57.57340322	     15.02481390	    -54.91755830	     31.30929814	     77.21753093	      0.00000000	      0.00000000	     58.51072387	     17.46888874	    -45.81895289	     34.49507984	      3.92562926	      0.00000000	      0.00000000
      0.13300000	      5.40019722	      1.93623384	      3.89219120	      0.06280181	      1.31941459	     -0.00522011	     50.69988466	     -0.62248743	      2.79244750	     76.51110504	      1.33537070	      1.29231545	    -15.98910165	      0.00000000	     33.07204668	     -5.74718974	     -9.27409023	     83.96961168	      1.46554620	     -1.93270465	    -10.93214404	      0.00000000	    -59.93598342	     -2.30258995	     -3.26844108	     57.61520536	     15.03422833	    -55.34203537	     31.36410578	     77.37523039	      0.00000000	      0.00000000	     58.55909473	     17.49385449	    -45.44175602	     34.38073332	      3.37239195	      0.00000000	      0.00000000
      0.15000000	      5.43079004	      2.32837736	      4.39521224	      0.06276047	      1.31966570	     -0.00578022	     48.21883132	     -1.31904424	      2.67119245	     72.73695713	      1.26949939	      0.63349179	    -15.96303689	      0.00000000	     34.62856484	     -5.50544253	     -9.06923802	     87.04727754	      1.51926160	     -1.33207841	    -10.71211730	      0.00000000	    -60.04498374	     -2.19769817	     -3.79064539	     57.56610139	     14.98909825	    -55.52140450	     31.41949124	     77.36704435	      0.00000000	      0.00000000	     58.61371182	     17.54091760	    -45.31359867	     34.27545179	      3.45587807	      0.00000000	      0.00000000
      0.16700000	      5.18458590	      3.17993413	      4.55537811	      0.06269721	      1.31949657	     -0.00601936	     46.01550282	     -2.06288278	      3.16599688	     69.11694038	      1.20631818	      0.14121630	    -15.90927301	      0.00000000	     36.43503995	     -5.02097544	     -9.41684710	     89.96375357	      1.57016371	     -0.96849355	    -10.42458651	      0.00000000	    -59.92701205	     -2.68057397	     -4.53972468	     57.41304655	     14.94044699	    -55.53935788	     31.54048213	     77.18845739	      0.00000000	      0.00000000	     58.61030701	     17.59876204	    -45.21211208	     34.22520964	      3.90125664	      0.00000000	      0.00000000
      0.18300000	      5.18015865	      3.35880033	      5.31562982	      0.06244527	      1.31972416	     -0.00681964	     43.43178324	     -2.78853998	      2.47794661	     65.32227397	      1.14008876	     -1.62065444	    -15.75400267	      0.00000000	     38.32939996	     -4.77743085	     -8.71909880	     92.99895214	      1.62313792	     -0.06451059	     -9.85247097	      0.00000000	    -60.00348266	     -2.24644446	     -4.99345760	     57.37040142	     14.88652878	    -55.84963089	     31.59002566	     77.14069665	      0.00000000	      0.00000000	     58.70301046	     17.67857086	    -45.09385196	     34.09289338	      3.81625282	      0.00000000	      0.00000000
      0.20000000	      5.06608602	      3.67051908	      5.97917902	      0.06223538	      1.31976447	     -0.00749153	     40.97994843	     -3.44375463	      1.97694948	     61.80469129	      1.07869536	     -2.83344685	    -15.94155791	      0.00000000	     40.35197991	     -4.43962561	     -8.17587581	     95.77577887	      1.67160269	      0.48167682	     -9.03623033	      0.00000000	    -59.96490616	     -1.99504623	     -5.52452108	     57.29976140	     14.86206365	    -56.15811510	     31.65534555	     77.19026399	      0.00000000	      0.00000000	     58.72860479	     17.74575190	    -44.88889248	     34.00760937	      3.61898121	      0.00000000	      0.00000000
